<svg width="189" height="43" viewBox="0 0 189 43" fill="none" xmlns="http://www.w3.org/2000/svg">
<path d="M14.4386 0.997036L23.9219 24.4915H18.1701L16.4327 19.7928H7.49036L5.753 24.4915H0L9.48328 0.997036H14.4386ZM14.6094 15.093L11.9896 8.25819H11.9323L9.31252 15.093H14.6094Z" fill="#0CC0DF"/>
<path d="M24.1776 28.0797L28.3078 26.0581C29.067 27.311 30.3867 27.9376 32.2661 27.9376C33.1394 27.9376 33.9508 27.6574 34.7003 27.0975C35.4503 26.5374 35.8257 25.6782 35.8257 24.5202V23.4383C34.9332 24.4256 33.3382 24.919 31.041 24.919C28.9338 24.919 27.1967 24.1738 25.8301 22.6831C24.4632 21.1927 23.7799 19.3651 23.7799 17.2006C23.7799 15.0363 24.4632 13.2041 25.8301 11.7043C27.1967 10.2047 28.9338 9.45464 31.041 9.45464C32.9205 9.45464 34.4871 10.0339 35.7409 11.192H35.8257V9.8821H40.867V24.8903C40.867 27.2631 40.0788 29.0953 38.5028 30.3866C36.9264 31.6776 34.8475 32.3234 32.2661 32.3234C28.0892 32.3234 25.3929 30.9086 24.1776 28.0797ZM30.1151 14.724C29.4601 15.3689 29.1329 16.1944 29.1329 17.2006C29.1329 18.2068 29.4461 19.0282 30.0727 19.6645C30.699 20.3002 31.525 20.618 32.5503 20.618C33.5382 20.618 34.3499 20.2957 34.9856 19.6507C35.622 19.0052 35.9403 18.1884 35.9403 17.2006C35.9403 16.1944 35.6125 15.3689 34.957 14.724C34.302 14.0785 33.4998 13.7556 32.5503 13.7556C31.5823 13.7556 30.7706 14.0785 30.1151 14.724Z" fill="#0CC0DF"/>
<path d="M44.7672 1.73751C45.3562 1.14845 46.0587 0.853928 46.8747 0.853928C47.6912 0.853928 48.3937 1.14845 48.9822 1.73751C49.5713 2.32598 49.8658 3.02849 49.8658 3.84503C49.8658 4.66099 49.5713 5.3635 48.9822 5.95255C48.3937 6.54103 47.6912 6.83498 46.8747 6.83498C46.0587 6.83498 45.3562 6.54103 44.7672 5.95255C44.1787 5.3635 43.8847 4.66099 43.8847 3.84503C43.8847 3.02849 44.1787 2.32598 44.7672 1.73751ZM44.2835 9.88224V24.4916H49.3237V9.88224H44.2835Z" fill="#0CC0DF"/>
<path d="M52.8839 24.4915V3.8147e-06H57.9241V24.4915H52.8839Z" fill="#0CC0DF"/>
<path d="M76.122 17.8847H65.5283C65.5283 18.9101 65.8601 19.6696 66.5242 20.163C67.1889 20.6567 67.9103 20.9033 68.689 20.9033C69.5055 20.9033 70.1513 20.7942 70.6258 20.5756C71.1002 20.3573 71.6414 19.9252 72.2497 19.2794L75.894 21.1027C74.3749 23.6469 71.85 24.919 68.3188 24.919C66.1168 24.919 64.2278 24.1646 62.6518 22.6556C61.0763 21.146 60.2887 19.3281 60.2887 17.2017C60.2887 15.0747 61.0763 13.252 62.6518 11.7329C64.2278 10.2142 66.1168 9.45464 68.3188 9.45464C70.6352 9.45464 72.5195 10.1239 73.9721 11.4625C75.4244 12.801 76.1507 14.7137 76.1507 17.2006C76.1507 17.5429 76.141 17.771 76.122 17.8847ZM65.6704 15.093H71.224C71.1099 14.3338 70.8108 13.7499 70.3266 13.3419C69.843 12.9339 69.2213 12.7299 68.4621 12.7299C67.6261 12.7299 66.9614 12.9486 66.468 13.3855C65.9744 13.8218 65.7085 14.3911 65.6704 15.093Z" fill="#0CC0DF"/>
<path d="M84.8079 5.6957V0.997036H101.325V5.6957H95.7432V24.4915H90.389V5.6957H84.8079Z" fill="#FF9900"/>
<path d="M103.262 24.4915V9.8821H108.302V11.9896H108.359C108.397 11.9134 108.459 11.8183 108.545 11.7043C108.63 11.5905 108.815 11.3914 109.099 11.1072C109.384 10.8224 109.688 10.566 110.01 10.3382C110.334 10.1099 110.751 9.90559 111.264 9.7251C111.777 9.54488 112.299 9.45464 112.831 9.45464C113.381 9.45464 113.922 9.53085 114.454 9.68269C114.985 9.83483 115.374 9.98696 115.621 10.1388L116.02 10.3657L113.913 14.6381C113.286 14.1063 112.413 13.8404 111.293 13.8404C110.685 13.8404 110.163 13.9734 109.726 14.2393C109.289 14.5051 108.98 14.828 108.8 15.2076C108.62 15.5875 108.491 15.9101 108.415 16.176C108.34 16.4419 108.302 16.6505 108.302 16.8017V24.4915H103.262Z" fill="#FF9900"/>
<path d="M117.927 1.73751C118.516 1.14845 119.219 0.853928 120.035 0.853928C120.851 0.853928 121.554 1.14845 122.142 1.73751C122.731 2.32598 123.026 3.02849 123.026 3.84503C123.026 4.66099 122.731 5.3635 122.142 5.95255C121.554 6.54103 120.851 6.83498 120.035 6.83498C119.219 6.83498 118.516 6.54103 117.927 5.95255C117.339 5.3635 117.045 4.66099 117.045 3.84503C117.045 3.02849 117.339 2.32598 117.927 1.73751ZM117.444 9.88224V24.4916H122.484V9.88224H117.444Z" fill="#FF9900"/>
<path d="M141.081 11.7043C142.447 13.2041 143.131 15.0363 143.131 17.2006C143.131 19.3651 142.447 21.1927 141.081 22.6831C139.714 24.1738 137.976 24.919 135.869 24.919C133.932 24.919 132.338 24.2262 131.084 22.8401H131.028V24.4915H126.044V3.8147e-06H131.084V11.2779C132.338 10.0626 133.932 9.45463 135.869 9.45463C137.976 9.45463 139.714 10.2047 141.081 11.7043ZM136.837 19.6645C137.463 19.0282 137.777 18.2068 137.777 17.2006C137.777 16.1943 137.449 15.3689 136.795 14.724C136.14 14.0785 135.328 13.7556 134.359 13.7556C133.41 13.7556 132.608 14.0785 131.953 14.724C131.298 15.3689 130.971 16.1943 130.971 17.2006C130.971 18.1884 131.288 19.0052 131.924 19.6507C132.56 20.2957 133.372 20.618 134.359 20.618C135.384 20.618 136.21 20.3002 136.837 19.6645Z" fill="#FF9900"/>
<path d="M160.275 17.8847H149.681C149.681 18.9101 150.013 19.6696 150.677 20.163C151.341 20.6567 152.063 20.9033 152.841 20.9033C153.658 20.9033 154.304 20.7942 154.778 20.5756C155.253 20.3573 155.794 19.9252 156.402 19.2794L160.046 21.1027C158.527 23.6469 156.002 24.919 152.471 24.919C150.269 24.919 148.38 24.1646 146.804 22.6556C145.229 21.146 144.441 19.3281 144.441 17.2017C144.441 15.0747 145.229 13.252 146.804 11.7329C148.38 10.2142 150.269 9.45464 152.471 9.45464C154.788 9.45464 156.672 10.1239 158.125 11.4625C159.577 12.801 160.303 14.7137 160.303 17.2006C160.303 17.5429 160.293 17.771 160.275 17.8847ZM149.823 15.093H155.376C155.262 14.3338 154.963 13.7499 154.479 13.3419C153.995 12.9339 153.374 12.7299 152.615 12.7299C151.779 12.7299 151.114 12.9486 150.62 13.3855C150.127 13.8218 149.861 14.3911 149.823 15.093Z" fill="#FF9900"/>
<path d="M162.667 24.4915V9.8821H167.707V11.9896H167.764C167.802 11.9134 167.864 11.8183 167.95 11.7043C168.035 11.5905 168.22 11.3914 168.504 11.1072C168.789 10.8224 169.093 10.566 169.415 10.3382C169.739 10.1099 170.156 9.90559 170.669 9.7251C171.182 9.54488 171.704 9.45464 172.236 9.45464C172.786 9.45464 173.327 9.53085 173.859 9.68269C174.39 9.83483 174.779 9.98696 175.026 10.1388L175.425 10.3657L173.318 14.6381C172.691 14.1063 171.818 13.8404 170.698 13.8404C170.09 13.8404 169.568 13.9734 169.131 14.2393C168.694 14.5051 168.385 14.828 168.205 15.2076C168.025 15.5875 167.896 15.9101 167.82 16.176C167.745 16.4419 167.707 16.6505 167.707 16.8017V24.4915H162.667Z" fill="#FF9900"/>
<path d="M183.2 9.45464C184.035 9.45464 184.86 9.54975 185.676 9.73999C186.493 9.92966 187.101 10.1193 187.5 10.3096L188.098 10.5938L186.445 13.8977C185.306 13.2903 184.224 12.9867 183.2 12.9867C182.63 12.9867 182.226 13.0485 181.989 13.1723C181.752 13.2955 181.633 13.5276 181.633 13.8691C181.633 13.9447 181.643 14.0209 181.662 14.0971C181.681 14.1728 181.719 14.2438 181.775 14.3103C181.833 14.3768 181.885 14.4338 181.932 14.4811C181.98 14.5286 182.06 14.5808 182.174 14.6381C182.288 14.6948 182.378 14.7375 182.445 14.7664C182.511 14.7948 182.62 14.8375 182.772 14.8948C182.924 14.9515 183.038 14.9942 183.114 15.0231C183.19 15.0515 183.317 15.0942 183.498 15.1515C183.679 15.2082 183.817 15.246 183.912 15.2649C184.5 15.4354 185.012 15.6254 185.448 15.8345C185.885 16.0431 186.346 16.3279 186.83 16.6883C187.315 17.049 187.689 17.5048 187.955 18.0555C188.221 18.6064 188.354 19.233 188.354 19.9349C188.354 23.2578 186.047 24.919 181.434 24.919C180.389 24.919 179.397 24.7577 178.458 24.4354C177.518 24.1122 176.839 23.789 176.421 23.4658L175.796 22.9536L177.846 19.5075C177.998 19.6404 178.197 19.7971 178.444 19.9773C178.691 20.1578 179.136 20.4045 179.781 20.7177C180.427 21.0311 180.987 21.1875 181.463 21.1875C182.506 21.1875 183.028 20.8366 183.028 20.1344C183.028 19.8112 182.895 19.5596 182.629 19.3791C182.364 19.1989 181.913 18.9949 181.277 18.7672C180.641 18.5397 180.143 18.3305 179.782 18.1403C178.871 17.6658 178.149 17.1301 177.618 16.5324C177.086 15.9342 176.82 15.1412 176.82 14.1533C176.82 12.6726 177.394 11.5195 178.543 10.6935C179.691 9.86777 181.244 9.45464 183.2 9.45464Z" fill="#FF9900"/>
<mask id="mask0_624_891" style="mask-type:luminance" maskUnits="userSpaceOnUse" x="43" y="0" width="8" height="8">
<path d="M43.2113 0.584904H50.8438V7.71598H43.2113V0.584904Z" fill="white"/>
</mask>
<g mask="url(#mask0_624_891)">
<mask id="mask1_624_891" style="mask-type:luminance" maskUnits="userSpaceOnUse" x="43" y="0" width="8" height="8">
<path d="M46.7768 0.584904H47.2527C48.1985 0.584904 49.1053 0.96051 49.774 1.62921C50.4427 2.29791 50.8183 3.20498 50.8183 4.15044C50.8183 5.09619 50.4427 6.00298 49.774 6.67168C49.1053 7.34038 48.1985 7.71598 47.2527 7.71598H46.7768C45.8311 7.71598 44.9243 7.34038 44.2556 6.67168C43.5869 6.00298 43.2113 5.09619 43.2113 4.15044C43.2113 3.20498 43.5869 2.29791 44.2556 1.62921C44.9243 0.96051 45.8311 0.584904 46.7768 0.584904Z" fill="white"/>
</mask>
<g mask="url(#mask1_624_891)">
<path d="M43.2113 0.584904H50.816V7.71598H43.2113V0.584904Z" fill="#FF9900"/>
</g>
</g>
<mask id="mask2_624_891" style="mask-type:luminance" maskUnits="userSpaceOnUse" x="116" y="0" width="9" height="8">
<path d="M116.352 0.584904H124.004V7.97699H116.352V0.584904Z" fill="white"/>
</mask>
<g mask="url(#mask2_624_891)">
<mask id="mask3_624_891" style="mask-type:luminance" maskUnits="userSpaceOnUse" x="116" y="0" width="8" height="8">
<path d="M120.048 0.584904H120.292C122.333 0.584904 123.988 2.23975 123.988 4.2808C123.988 6.32214 122.333 7.97699 120.292 7.97699H120.048C118.007 7.97699 116.352 6.32214 116.352 4.2808C116.352 2.23975 118.007 0.584904 120.048 0.584904Z" fill="white"/>
</mask>
<g mask="url(#mask3_624_891)">
<path d="M116.352 0.584904H123.975V7.97699H116.352V0.584904Z" fill="#0CC0DF"/>
</g>
</g>
<path d="M14.4984 39.3669H12.7118L12.4253 40.2127H11.2048L12.9364 35.4269H14.2864L16.0181 40.2127H14.7838L14.4984 39.3669ZM14.1982 38.4673L13.6046 36.715L13.0189 38.4673H14.1982Z" fill="white"/>
<path d="M17.7089 35.4269V40.2127H16.5434V35.4269H17.7089Z" fill="white"/>
<path d="M23.6602 40.2128L23.2179 39.7831C22.777 40.1194 22.2498 40.2873 21.6364 40.2873C21.2679 40.2873 20.9476 40.2272 20.6749 40.1074C20.4021 39.9868 20.1915 39.8163 20.0434 39.5963C19.8959 39.3757 19.8222 39.1172 19.8222 38.8216C19.8222 38.5222 19.9028 38.2508 20.0641 38.0079C20.2259 37.7644 20.468 37.5652 20.7906 37.4108C20.672 37.2658 20.5878 37.1263 20.5374 36.9925C20.4875 36.8582 20.4629 36.7112 20.4629 36.5513C20.4629 36.3244 20.5219 36.1178 20.6405 35.9313C20.7588 35.7451 20.9304 35.5987 21.1551 35.4924C21.3803 35.3855 21.6473 35.3319 21.9561 35.3319C22.2701 35.3319 22.536 35.389 22.7538 35.5027C22.9721 35.6159 23.1357 35.768 23.2442 35.9588C23.3534 36.1499 23.4035 36.3588 23.3944 36.5857H22.2976C22.3022 36.4636 22.2713 36.3697 22.2048 36.3038C22.1389 36.2373 22.0515 36.2041 21.9424 36.2041C21.8338 36.2041 21.743 36.2362 21.6696 36.3003C21.5968 36.3639 21.5607 36.4453 21.5607 36.5444C21.5607 36.6401 21.5911 36.7401 21.6524 36.8447C21.7143 36.9495 21.8109 37.0699 21.9424 37.2057L23.109 38.3448C23.1173 38.3219 23.1296 38.295 23.1457 38.2635C23.1617 38.2314 23.1789 38.1947 23.1973 38.1534L23.4494 37.7248H24.6149L24.2883 38.3173C24.1651 38.5855 24.0241 38.8399 23.8654 39.0806L25.0171 40.2128H23.6602ZM21.6902 39.3464C21.9951 39.3464 22.2655 39.2602 22.5016 39.0874L21.4381 38.0583C21.1109 38.2265 20.9476 38.4537 20.9476 38.7402C20.9476 38.913 21.0144 39.0574 21.1482 39.1734C21.2826 39.2889 21.4633 39.3464 21.6902 39.3464Z" fill="white"/>
<path d="M28.678 35.4269C29.1828 35.4269 29.6238 35.5272 30.0005 35.7272C30.3778 35.9266 30.6701 36.2071 30.8772 36.5684C31.0841 36.9299 31.1878 37.3471 31.1878 37.8198C31.1878 38.2882 31.0841 38.7042 30.8772 39.0678C30.6701 39.4308 30.3767 39.7125 29.9971 39.9124C29.618 40.1127 29.1783 40.2127 28.678 40.2127H26.8857V35.4269H28.678ZM28.6035 39.2042C29.0442 39.2042 29.3874 39.0839 29.6326 38.8432C29.8785 38.602 30.0017 38.2607 30.0017 37.8198C30.0017 37.3792 29.8785 37.0359 29.6326 36.7907C29.3874 36.5449 29.0442 36.4217 28.6035 36.4217H28.0511V39.2042H28.6035Z" fill="white"/>
<path d="M31.6106 38.3033C31.6106 37.9131 31.6842 37.5698 31.8318 37.2742C31.979 36.9785 32.1802 36.7513 32.4346 36.5923C32.6896 36.4336 32.9738 36.3539 33.2872 36.3539C33.5554 36.3539 33.7903 36.4086 33.992 36.5178C34.1943 36.6264 34.3501 36.7693 34.4596 36.9464V36.4078H35.6262V40.2125H34.4596V39.6739C34.3464 39.8513 34.1885 39.9945 33.9863 40.1037C33.7837 40.2128 33.5485 40.2676 33.2803 40.2676C32.9715 40.2676 32.6896 40.187 32.4346 40.0257C32.1802 39.8639 31.979 39.6344 31.8318 39.337C31.6842 39.039 31.6106 38.6946 31.6106 38.3033ZM34.4596 38.3102C34.4596 38.0191 34.3788 37.7896 34.2178 37.6214C34.0565 37.4535 33.8596 37.3693 33.6276 37.3693C33.3961 37.3693 33.1995 37.4527 33.0385 37.6191C32.8772 37.785 32.7967 38.0131 32.7967 38.3033C32.7967 38.5944 32.8772 38.8253 33.0385 38.9955C33.1995 39.1659 33.3961 39.251 33.6276 39.251C33.8596 39.251 34.0565 39.1671 34.2178 38.9989C34.3788 38.831 34.4596 38.6012 34.4596 38.3102Z" fill="white"/>
<path d="M38.5913 39.2235V40.2125H37.9976C37.5751 40.2125 37.2453 40.1094 37.0086 39.9031C36.7726 39.6963 36.6545 39.3585 36.6545 38.89V37.3762H36.1915V36.4078H36.6545V35.4806H37.8212V36.4078H38.5844V37.3762H37.8212V38.9038C37.8212 39.0178 37.8481 39.0995 37.9025 39.149C37.9575 39.1989 38.0484 39.2235 38.1753 39.2235H38.5913Z" fill="white"/>
<path d="M39.0076 38.3033C39.0076 37.9131 39.0813 37.5698 39.2288 37.2742C39.3761 36.9785 39.5772 36.7513 39.8316 36.5923C40.0866 36.4336 40.3708 36.3539 40.6842 36.3539C40.9524 36.3539 41.1874 36.4086 41.389 36.5178C41.5913 36.6264 41.7472 36.7693 41.8566 36.9464V36.4078H43.0233V40.2125H41.8566V39.6739C41.7435 39.8513 41.5856 39.9945 41.3833 40.1037C41.1808 40.2128 40.9455 40.2676 40.6774 40.2676C40.3685 40.2676 40.0866 40.187 39.8316 40.0257C39.5772 39.8639 39.3761 39.6344 39.2288 39.337C39.0813 39.039 39.0076 38.6946 39.0076 38.3033ZM41.8566 38.3102C41.8566 38.0191 41.7758 37.7896 41.6148 37.6214C41.4535 37.4535 41.2567 37.3693 41.0246 37.3693C40.7931 37.3693 40.5966 37.4527 40.4356 37.6191C40.2743 37.785 40.1938 38.0131 40.1938 38.3033C40.1938 38.5944 40.2743 38.8253 40.4356 38.9955C40.5966 39.1659 40.7931 39.251 41.0246 39.251C41.2567 39.251 41.4535 39.1671 41.6148 38.9989C41.7758 38.831 41.8566 38.6012 41.8566 38.3102Z" fill="white"/>
<path d="M46.4653 41.0917H45.2998V34.6568H46.4653V41.0917Z" fill="white"/>
<path d="M54.1623 35.4269V40.2127H52.9968V37.3419L51.9265 40.2127H50.9856L49.9083 37.3362V40.2127H48.7428V35.4269H50.1203L51.4623 38.7401L52.7928 35.4269H54.1623Z" fill="white"/>
<path d="M59.4938 35.4269L57.7966 40.2127H56.3377L54.6405 35.4269H55.8804L57.0666 39.0403L58.2596 35.4269H59.4938Z" fill="white"/>
<path d="M63.626 36.9672C63.626 37.2445 63.5621 37.4983 63.4346 37.7281C63.3068 37.9573 63.1114 38.1427 62.8478 38.2839C62.5842 38.4246 62.257 38.4948 61.8668 38.4948H61.1437V40.2127H59.9782V35.4269H61.8668C62.2479 35.4269 62.5705 35.4931 62.8341 35.6252C63.0982 35.7567 63.2962 35.9386 63.4277 36.1707C63.5598 36.4022 63.626 36.6678 63.626 36.9672ZM61.7774 37.5677C62.0003 37.5677 62.1662 37.5155 62.2748 37.4107C62.384 37.3061 62.4387 37.1583 62.4387 36.9672C62.4387 36.7764 62.384 36.6288 62.2748 36.5248C62.1662 36.4202 62.0003 36.3678 61.7774 36.3678H61.1437V37.5677H61.7774Z" fill="white"/>
<path d="M68.6574 39.3669H66.8707L66.5842 40.2127H65.3637L67.0953 35.4269H68.4453L70.177 40.2127H68.9427L68.6574 39.3669ZM68.3571 38.4673L67.7635 36.715L67.1779 38.4673H68.3571Z" fill="white"/>
<path d="M70.4708 38.3102C70.4708 37.9154 70.5513 37.5698 70.7126 37.2742C70.8736 36.9785 71.0982 36.7513 71.3865 36.5923C71.6753 36.4336 72.0059 36.3539 72.3789 36.3539C72.8562 36.3539 73.255 36.4788 73.5754 36.7287C73.8962 36.9785 74.1065 37.3309 74.2068 37.7853H72.9657C72.8608 37.4942 72.6585 37.3487 72.3583 37.3487C72.1451 37.3487 71.9747 37.432 71.8472 37.5985C71.7202 37.7644 71.6569 38.0016 71.6569 38.3102C71.6569 38.6196 71.7202 38.8574 71.8472 39.023C71.9747 39.1889 72.1451 39.2717 72.3583 39.2717C72.6585 39.2717 72.8608 39.1261 72.9657 38.835H74.2068C74.1065 39.2805 73.8951 39.6309 73.5719 39.8859C73.2493 40.1403 72.8516 40.2676 72.3789 40.2676C72.0059 40.2676 71.6753 40.1882 71.3865 40.0292C71.0982 39.8696 70.8736 39.6424 70.7126 39.3473C70.5513 39.0516 70.4708 38.7061 70.4708 38.3102Z" fill="white"/>
<path d="M74.5955 38.3102C74.5955 37.9154 74.676 37.5698 74.8373 37.2742C74.9983 36.9785 75.223 36.7513 75.5112 36.5923C75.8 36.4336 76.1306 36.3539 76.5036 36.3539C76.981 36.3539 77.3798 36.4788 77.7001 36.7287C78.021 36.9785 78.2313 37.3309 78.3315 37.7853H77.0904C76.9855 37.4942 76.7833 37.3487 76.483 37.3487C76.2698 37.3487 76.0994 37.432 75.9719 37.5985C75.845 37.7644 75.7816 38.0016 75.7816 38.3102C75.7816 38.6196 75.845 38.8574 75.9719 39.023C76.0994 39.1889 76.2698 39.2717 76.483 39.2717C76.7833 39.2717 76.9855 39.1261 77.0904 38.835H78.3315C78.2313 39.2805 78.0198 39.6309 77.6966 39.8859C77.374 40.1403 76.9764 40.2676 76.5036 40.2676C76.1306 40.2676 75.8 40.1882 75.5112 40.0292C75.223 39.8696 74.9983 39.6424 74.8373 39.3473C74.676 39.0516 74.5955 38.7061 74.5955 38.3102Z" fill="white"/>
<path d="M82.5375 38.2494C82.5375 38.358 82.5306 38.4715 82.5169 38.5898H79.8787C79.8971 38.8259 79.973 39.0067 80.1068 39.1319C80.2412 39.2573 80.4059 39.3198 80.6007 39.3198C80.8918 39.3198 81.0941 39.1969 81.2081 38.9508H82.4492C82.3851 39.2015 82.2699 39.427 82.1043 39.6269C81.9384 39.8263 81.7307 39.9831 81.4809 40.0968C81.231 40.2108 80.9514 40.2676 80.642 40.2676C80.2689 40.2676 79.9372 40.1882 79.6461 40.0292C79.3556 39.8696 79.1287 39.6424 78.9654 39.3473C78.8018 39.0516 78.7201 38.7061 78.7201 38.3102C78.7201 37.9154 78.8006 37.5698 78.9619 37.2742C79.1229 36.9785 79.3487 36.7513 79.6392 36.5923C79.9303 36.4336 80.2644 36.3539 80.642 36.3539C81.0101 36.3539 81.3376 36.4313 81.6241 36.5854C81.9106 36.7398 82.1344 36.9602 82.2957 37.2467C82.4567 37.5332 82.5375 37.8675 82.5375 38.2494ZM81.3445 37.9423C81.3445 37.7423 81.276 37.5833 81.1393 37.4655C81.0033 37.3472 80.8328 37.2879 80.6282 37.2879C80.4325 37.2879 80.2675 37.3449 80.1331 37.4587C79.9993 37.5718 79.9168 37.7331 79.8856 37.9423H81.3445Z" fill="white"/>
<path d="M84.3167 35.1678V40.2125H83.1512V35.1678H84.3167Z" fill="white"/>
<path d="M88.7483 38.2494C88.7483 38.358 88.7414 38.4715 88.7277 38.5898H86.0895C86.1079 38.8259 86.1838 39.0067 86.3176 39.1319C86.452 39.2573 86.6167 39.3198 86.8115 39.3198C87.1026 39.3198 87.3049 39.1969 87.4189 38.9508H88.66C88.5959 39.2015 88.4807 39.427 88.3151 39.6269C88.1492 39.8263 87.9415 39.9831 87.6917 40.0968C87.4418 40.2108 87.1622 40.2676 86.8528 40.2676C86.4797 40.2676 86.148 40.1882 85.8569 40.0292C85.5664 39.8696 85.3395 39.6424 85.1762 39.3473C85.0126 39.0516 84.9309 38.7061 84.9309 38.3102C84.9309 37.9154 85.0114 37.5698 85.1727 37.2742C85.3337 36.9785 85.5595 36.7513 85.85 36.5923C86.1411 36.4336 86.4752 36.3539 86.8528 36.3539C87.2209 36.3539 87.5484 36.4313 87.8349 36.5854C88.1214 36.7398 88.3452 36.9602 88.5065 37.2467C88.6675 37.5332 88.7483 37.8675 88.7483 38.2494ZM87.5553 37.9423C87.5553 37.7423 87.4868 37.5833 87.3501 37.4655C87.2141 37.3472 87.0436 37.2879 86.839 37.2879C86.6433 37.2879 86.4783 37.3449 86.3439 37.4587C86.2101 37.5718 86.1276 37.7331 86.0964 37.9423H87.5553Z" fill="white"/>
<path d="M90.5275 37.0427C90.6642 36.8335 90.8347 36.6688 91.0387 36.5487C91.2432 36.4281 91.4707 36.3677 91.7205 36.3677V37.6019H91.4008C91.1097 37.6019 90.8911 37.6647 90.7453 37.7899C90.6 37.9145 90.5275 38.1334 90.5275 38.4465V40.2125H89.362V36.4078H90.5275V37.0427Z" fill="white"/>
<path d="M92.0485 38.3033C92.0485 37.9131 92.1222 37.5698 92.2697 37.2742C92.417 36.9785 92.6181 36.7513 92.8725 36.5923C93.1275 36.4336 93.4117 36.3539 93.7251 36.3539C93.9933 36.3539 94.2282 36.4086 94.4299 36.5178C94.6322 36.6264 94.7881 36.7693 94.8975 36.9464V36.4078H96.0642V40.2125H94.8975V39.6739C94.7843 39.8513 94.6265 39.9945 94.4242 40.1037C94.2217 40.2128 93.9864 40.2676 93.7183 40.2676C93.4094 40.2676 93.1275 40.187 92.8725 40.0257C92.6181 39.8639 92.417 39.6344 92.2697 39.337C92.1222 39.039 92.0485 38.6946 92.0485 38.3033ZM94.8975 38.3102C94.8975 38.0191 94.8167 37.7896 94.6557 37.6214C94.4944 37.4535 94.2976 37.3693 94.0655 37.3693C93.834 37.3693 93.6375 37.4527 93.4765 37.6191C93.3152 37.785 93.2346 38.0131 93.2346 38.3033C93.2346 38.5944 93.3152 38.8253 93.4765 38.9955C93.6375 39.1659 93.834 39.251 94.0655 39.251C94.2976 39.251 94.4944 39.1671 94.6557 38.9989C94.8167 38.831 94.8975 38.6012 94.8975 38.3102Z" fill="white"/>
<path d="M99.0293 39.2235V40.2125H98.4357C98.0131 40.2125 97.6833 40.1094 97.4467 39.9031C97.2106 39.6963 97.0925 39.3585 97.0925 38.89V37.3762H96.6295V36.4078H97.0925V35.4806H98.2592V36.4078H99.0224V37.3762H98.2592V38.9038C98.2592 39.0178 98.2861 39.0995 98.3405 39.149C98.3956 39.1989 98.4864 39.2235 98.6133 39.2235H99.0293Z" fill="white"/>
<path d="M101.409 40.2676C101.036 40.2676 100.7 40.1882 100.403 40.0292C100.105 39.8696 99.8713 39.6424 99.7011 39.3473C99.5307 39.0516 99.4456 38.7061 99.4456 38.3102C99.4456 37.9199 99.5318 37.5756 99.7046 37.2776C99.8771 36.9796 100.113 36.7513 100.413 36.5923C100.713 36.4336 101.049 36.3539 101.422 36.3539C101.795 36.3539 102.131 36.4336 102.431 36.5923C102.731 36.7513 102.968 36.9796 103.14 37.2776C103.313 37.5756 103.399 37.9199 103.399 38.3102C103.399 38.7015 103.312 39.0459 103.137 39.3439C102.962 39.6413 102.723 39.8696 102.421 40.0292C102.119 40.1882 101.781 40.2676 101.409 40.2676ZM101.409 39.2579C101.631 39.2579 101.82 39.1763 101.977 39.0127C102.134 38.8494 102.213 38.615 102.213 38.3102C102.213 38.0062 102.137 37.7724 101.984 37.6088C101.832 37.4446 101.645 37.3624 101.422 37.3624C101.195 37.3624 101.006 37.4435 100.856 37.6054C100.706 37.7667 100.632 38.0016 100.632 38.3102C100.632 38.615 100.705 38.8494 100.853 39.0127C101 39.1763 101.186 39.2579 101.409 39.2579Z" fill="white"/>
<path d="M105.185 37.0427C105.322 36.8335 105.493 36.6688 105.697 36.5487C105.901 36.4281 106.129 36.3677 106.378 36.3677V37.6019H106.059C105.768 37.6019 105.549 37.6647 105.403 37.7899C105.258 37.9145 105.185 38.1334 105.185 38.4465V40.2125H104.02V36.4078H105.185V37.0427Z" fill="white"/>
<path d="M109.535 41.0917H108.369V34.6568H109.535V41.0917Z" fill="white"/>
<path d="M118.399 35.4269L117.151 40.2127H115.739L114.975 37.0634L114.185 40.2127H112.774L111.56 35.4269H112.807L113.496 38.9108L114.349 35.4269H115.63L116.448 38.9108L117.144 35.4269H118.399Z" fill="white"/>
<path d="M122.57 38.2494C122.57 38.358 122.564 38.4715 122.55 38.5898H119.912C119.93 38.8259 120.006 39.0067 120.14 39.1319C120.274 39.2573 120.439 39.3198 120.634 39.3198C120.925 39.3198 121.127 39.1969 121.241 38.9508H122.482C122.418 39.2015 122.303 39.427 122.137 39.6269C121.971 39.8263 121.764 39.9831 121.514 40.0968C121.264 40.2108 120.984 40.2676 120.675 40.2676C120.302 40.2676 119.97 40.1882 119.679 40.0292C119.389 39.8696 119.162 39.6424 118.998 39.3473C118.835 39.0516 118.753 38.7061 118.753 38.3102C118.753 37.9154 118.834 37.5698 118.995 37.2742C119.156 36.9785 119.382 36.7513 119.672 36.5923C119.963 36.4336 120.297 36.3539 120.675 36.3539C121.043 36.3539 121.371 36.4313 121.657 36.5854C121.944 36.7398 122.167 36.9602 122.329 37.2467C122.49 37.5332 122.57 37.8675 122.57 38.2494ZM121.377 37.9423C121.377 37.7423 121.309 37.5833 121.172 37.4655C121.036 37.3472 120.866 37.2879 120.661 37.2879C120.465 37.2879 120.3 37.3449 120.166 37.4587C120.032 37.5718 119.95 37.7331 119.919 37.9423H121.377Z" fill="white"/>
<path d="M124.35 36.9464C124.459 36.7693 124.616 36.6264 124.82 36.5178C125.024 36.4086 125.258 36.3539 125.522 36.3539C125.836 36.3539 126.12 36.4336 126.375 36.5923C126.629 36.7513 126.83 36.9785 126.977 37.2742C127.126 37.5698 127.2 37.9131 127.2 38.3033C127.2 38.6946 127.126 39.039 126.977 39.337C126.83 39.6344 126.629 39.8639 126.375 40.0257C126.12 40.187 125.836 40.2676 125.522 40.2676C125.254 40.2676 125.019 40.214 124.82 40.1071C124.62 40.0002 124.463 39.8581 124.35 39.6808V40.2125H123.184V35.1678H124.35V36.9464ZM126.014 38.3033C126.014 38.0131 125.933 37.785 125.771 37.6191C125.609 37.4527 125.411 37.3693 125.175 37.3693C124.943 37.3693 124.746 37.4535 124.585 37.6214C124.423 37.7896 124.343 38.0191 124.343 38.3102C124.343 38.6012 124.423 38.831 124.585 38.9989C124.746 39.1671 124.943 39.251 125.175 39.251C125.406 39.251 125.604 39.1659 125.767 38.9955C125.931 38.8253 126.014 38.5944 126.014 38.3033Z" fill="white"/>
<path d="M132.919 40.2128L132.477 39.7831C132.036 40.1194 131.509 40.2873 130.895 40.2873C130.527 40.2873 130.206 40.2272 129.934 40.1074C129.661 39.9868 129.45 39.8163 129.302 39.5963C129.155 39.3757 129.081 39.1172 129.081 38.8216C129.081 38.5222 129.162 38.2508 129.323 38.0079C129.485 37.7644 129.727 37.5652 130.049 37.4108C129.931 37.2658 129.847 37.1263 129.796 36.9925C129.746 36.8582 129.722 36.7112 129.722 36.5513C129.722 36.3244 129.781 36.1178 129.899 35.9313C130.018 35.7451 130.189 35.5987 130.414 35.4924C130.639 35.3855 130.906 35.3319 131.215 35.3319C131.529 35.3319 131.795 35.389 132.013 35.5027C132.231 35.6159 132.394 35.768 132.503 35.9588C132.612 36.1499 132.662 36.3588 132.653 36.5857H131.556C131.561 36.4636 131.53 36.3697 131.464 36.3038C131.398 36.2373 131.31 36.2041 131.201 36.2041C131.093 36.2041 131.002 36.2362 130.928 36.3003C130.856 36.3639 130.82 36.4453 130.82 36.5444C130.82 36.6401 130.85 36.7401 130.911 36.8447C130.973 36.9495 131.07 37.0699 131.201 37.2057L132.368 38.3448C132.376 38.3219 132.388 38.295 132.404 38.2635C132.421 38.2314 132.438 38.1947 132.456 38.1534L132.708 37.7248H133.874L133.547 38.3173C133.424 38.5855 133.283 38.8399 133.124 39.0806L134.276 40.2128H132.919ZM130.949 39.3464C131.254 39.3464 131.524 39.2602 131.76 39.0874L130.697 38.0583C130.37 38.2265 130.206 38.4537 130.206 38.7402C130.206 38.913 130.273 39.0574 130.407 39.1734C130.541 39.2889 130.722 39.3464 130.949 39.3464Z" fill="white"/>
<path d="M141.564 35.4269V40.2127H140.398V37.3419L139.328 40.2127H138.387L137.31 37.3362V40.2127H136.144V35.4269H137.522L138.864 38.7401L140.194 35.4269H141.564Z" fill="white"/>
<path d="M144.135 40.2676C143.762 40.2676 143.426 40.1882 143.128 40.0292C142.831 39.8696 142.597 39.6424 142.427 39.3473C142.257 39.0516 142.171 38.7061 142.171 38.3102C142.171 37.9199 142.258 37.5756 142.43 37.2776C142.603 36.9796 142.839 36.7513 143.139 36.5923C143.439 36.4336 143.775 36.3539 144.148 36.3539C144.521 36.3539 144.857 36.4336 145.157 36.5923C145.457 36.7513 145.693 36.9796 145.866 37.2776C146.039 37.5756 146.125 37.9199 146.125 38.3102C146.125 38.7015 146.038 39.0459 145.863 39.3439C145.688 39.6413 145.449 39.8696 145.147 40.0292C144.845 40.1882 144.507 40.2676 144.135 40.2676ZM144.135 39.2579C144.357 39.2579 144.546 39.1763 144.703 39.0127C144.86 38.8494 144.939 38.615 144.939 38.3102C144.939 38.0062 144.863 37.7724 144.71 37.6088C144.558 37.4446 144.371 37.3624 144.148 37.3624C143.921 37.3624 143.732 37.4435 143.582 37.6054C143.432 37.7667 143.358 38.0016 143.358 38.3102C143.358 38.615 143.431 38.8494 143.579 39.0127C143.726 39.1763 143.911 39.2579 144.135 39.2579Z" fill="white"/>
<path d="M147.911 36.9464C148.02 36.7693 148.177 36.6264 148.381 36.5178C148.586 36.4086 148.82 36.3539 149.084 36.3539C149.398 36.3539 149.682 36.4336 149.936 36.5923C150.191 36.7513 150.391 36.9785 150.539 37.2742C150.687 37.5698 150.761 37.9131 150.761 38.3033C150.761 38.6946 150.687 39.039 150.539 39.337C150.391 39.6344 150.191 39.8639 149.936 40.0257C149.682 40.187 149.398 40.2676 149.084 40.2676C148.815 40.2676 148.581 40.214 148.381 40.1071C148.182 40.0002 148.025 39.8581 147.911 39.6808V40.2125H146.746V35.1678H147.911V36.9464ZM149.575 38.3033C149.575 38.0131 149.494 37.785 149.332 37.6191C149.171 37.4527 148.972 37.3693 148.736 37.3693C148.505 37.3693 148.308 37.4535 148.146 37.6214C147.985 37.7896 147.904 38.0191 147.904 38.3102C147.904 38.6012 147.985 38.831 148.146 38.9989C148.308 39.1671 148.505 39.251 148.736 39.251C148.968 39.251 149.165 39.1659 149.329 38.9955C149.493 38.8253 149.575 38.5944 149.575 38.3033Z" fill="white"/>
<path d="M151.96 36.0124C151.756 36.0124 151.589 35.9525 151.46 35.8325C151.33 35.7119 151.266 35.5629 151.266 35.3855C151.266 35.2039 151.33 35.0529 151.46 34.9328C151.589 34.8122 151.756 34.7518 151.96 34.7518C152.16 34.7518 152.325 34.8122 152.454 34.9328C152.584 35.0529 152.649 35.2039 152.649 35.3855C152.649 35.5629 152.584 35.7119 152.454 35.8325C152.325 35.9525 152.16 36.0124 151.96 36.0124ZM152.54 36.4078V40.2125H151.375V36.4078H152.54Z" fill="white"/>
<path d="M154.552 35.1678V40.2125H153.386V35.1678H154.552Z" fill="white"/>
<path d="M158.983 38.2494C158.983 38.358 158.976 38.4715 158.963 38.5898H156.324C156.343 38.8259 156.419 39.0067 156.552 39.1319C156.687 39.2573 156.852 39.3198 157.046 39.3198C157.337 39.3198 157.54 39.1969 157.654 38.9508H158.895C158.831 39.2015 158.716 39.427 158.55 39.6269C158.384 39.8263 158.176 39.9831 157.927 40.0968C157.677 40.2108 157.397 40.2676 157.088 40.2676C156.715 40.2676 156.383 40.1882 156.092 40.0292C155.801 39.8696 155.574 39.6424 155.411 39.3473C155.247 39.0516 155.166 38.7061 155.166 38.3102C155.166 37.9154 155.246 37.5698 155.408 37.2742C155.569 36.9785 155.794 36.7513 156.085 36.5923C156.376 36.4336 156.71 36.3539 157.088 36.3539C157.456 36.3539 157.783 36.4313 158.07 36.5854C158.356 36.7398 158.58 36.9602 158.741 37.2467C158.902 37.5332 158.983 37.8675 158.983 38.2494ZM157.79 37.9423C157.79 37.7423 157.722 37.5833 157.585 37.4655C157.449 37.3472 157.278 37.2879 157.074 37.2879C156.878 37.2879 156.713 37.3449 156.579 37.4587C156.445 37.5718 156.363 37.7331 156.331 37.9423H157.79Z" fill="white"/>
<path d="M164.022 39.3669H162.235L161.949 40.2127H160.728L162.46 35.4269H163.81L165.541 40.2127H164.307L164.022 39.3669ZM163.722 38.4673L163.128 36.715L162.542 38.4673H163.722Z" fill="white"/>
<path d="M167.232 36.9464C167.346 36.7693 167.503 36.6264 167.702 36.5178C167.902 36.4086 168.137 36.3539 168.405 36.3539C168.719 36.3539 169.003 36.4336 169.257 36.5923C169.512 36.7513 169.713 36.9785 169.86 37.2742C170.008 37.5698 170.082 37.9131 170.082 38.3033C170.082 38.6946 170.008 39.039 169.86 39.337C169.713 39.6344 169.512 39.8639 169.257 40.0257C169.003 40.187 168.719 40.2676 168.405 40.2676C168.141 40.2676 167.908 40.2128 167.706 40.1037C167.504 39.9945 167.346 39.8536 167.232 39.6808V42.0255H166.067V36.4078H167.232V36.9464ZM168.896 38.3033C168.896 38.0131 168.815 37.785 168.653 37.6191C168.492 37.4527 168.294 37.3693 168.057 37.3693C167.826 37.3693 167.629 37.4535 167.467 37.6214C167.306 37.7896 167.225 38.0191 167.225 38.3102C167.225 38.6012 167.306 38.831 167.467 38.9989C167.629 39.1671 167.826 39.251 168.057 39.251C168.289 39.251 168.486 39.1659 168.65 38.9955C168.814 38.8253 168.896 38.5944 168.896 38.3033Z" fill="white"/>
<path d="M171.861 36.9464C171.975 36.7693 172.132 36.6264 172.331 36.5178C172.531 36.4086 172.766 36.3539 173.034 36.3539C173.348 36.3539 173.632 36.4336 173.886 36.5923C174.141 36.7513 174.342 36.9785 174.489 37.2742C174.637 37.5698 174.712 37.9131 174.712 38.3033C174.712 38.6946 174.637 39.039 174.489 39.337C174.342 39.6344 174.141 39.8639 173.886 40.0257C173.632 40.187 173.348 40.2676 173.034 40.2676C172.77 40.2676 172.537 40.2128 172.335 40.1037C172.133 39.9945 171.975 39.8536 171.861 39.6808V42.0255H170.696V36.4078H171.861V36.9464ZM173.525 38.3033C173.525 38.0131 173.444 37.785 173.282 37.6191C173.121 37.4527 172.923 37.3693 172.687 37.3693C172.455 37.3693 172.258 37.4535 172.096 37.6214C171.935 37.7896 171.855 38.0191 171.855 38.3102C171.855 38.6012 171.935 38.831 172.096 38.9989C172.258 39.1671 172.455 39.251 172.687 39.251C172.918 39.251 173.115 39.1659 173.279 38.9955C173.443 38.8253 173.525 38.5944 173.525 38.3033Z" fill="white"/>
<path d="M176.872 40.2676C176.54 40.2676 176.245 40.2108 175.986 40.0968C175.727 39.9831 175.522 39.8275 175.372 39.6304C175.222 39.4327 175.138 39.2106 175.12 38.9645H176.273C176.287 39.0969 176.348 39.2038 176.456 39.2854C176.565 39.3674 176.699 39.408 176.858 39.408C177.004 39.408 177.117 39.38 177.196 39.3232C177.276 39.2659 177.316 39.192 177.316 39.1009C177.316 38.9926 177.259 38.9124 177.145 38.8602C177.031 38.8075 176.847 38.7491 176.593 38.6849C176.32 38.6216 176.092 38.5548 175.911 38.4844C175.729 38.4142 175.572 38.303 175.44 38.1509C175.308 37.9982 175.242 37.7922 175.242 37.5332C175.242 37.3148 175.303 37.116 175.424 36.9372C175.544 36.7579 175.722 36.6158 175.955 36.5109C176.189 36.4063 176.468 36.3539 176.791 36.3539C177.268 36.3539 177.644 36.4725 177.918 36.7092C178.193 36.9453 178.352 37.2587 178.393 37.6489H177.316C177.297 37.5177 177.239 37.4134 177.141 37.336C177.043 37.2581 176.915 37.2192 176.756 37.2192C176.62 37.2192 176.516 37.2455 176.442 37.2982C176.37 37.3504 176.334 37.4217 176.334 37.5125C176.334 37.622 176.391 37.7039 176.508 37.7589C176.624 37.8134 176.805 37.8675 177.05 37.9217C177.332 37.9944 177.561 38.0661 177.739 38.1371C177.916 38.2076 178.071 38.321 178.205 38.4775C178.339 38.6342 178.409 38.8442 178.414 39.1078C178.414 39.331 178.351 39.5301 178.226 39.7049C178.101 39.8799 177.921 40.0174 177.687 40.1174C177.453 40.2174 177.182 40.2676 176.872 40.2676Z" fill="white"/>
</svg>
